<?xml version="1.0" encoding="UTF-8" standalone="no"?>
<svg
   xmlns:dc="http://purl.org/dc/elements/1.1/"
   xmlns:cc="http://creativecommons.org/ns#"
   xmlns:rdf="http://www.w3.org/1999/02/22-rdf-syntax-ns#"
   xmlns:svg="http://www.w3.org/2000/svg"
   xmlns="http://www.w3.org/2000/svg"
   xmlns:sodipodi="http://sodipodi.sourceforge.net/DTD/sodipodi-0.dtd"
   xmlns:inkscape="http://www.inkscape.org/namespaces/inkscape"
   version="1.1"
   id="レイヤー_1"
   x="0px"
   y="0px"
   viewBox="0 0 476.75026 478.02054"
   xml:space="preserve"
   sodipodi:docname="favicon.svg"
   inkscape:version="1.0.1 (c497b03c, 2020-09-10)"
   width="32"
   height="32"><metadata
   id="metadata89"><rdf:RDF><cc:Work
       rdf:about=""><dc:format>image/svg+xml</dc:format><dc:type
         rdf:resource="http://purl.org/dc/dcmitype/StillImage" /><dc:title></dc:title><cc:license
         rdf:resource="" /></cc:Work></rdf:RDF></metadata><defs
   id="defs87" /><sodipodi:namedview
   pagecolor="#ffffff"
   bordercolor="#666666"
   borderopacity="1"
   objecttolerance="10"
   gridtolerance="10"
   guidetolerance="10"
   inkscape:pageopacity="0"
   inkscape:pageshadow="2"
   inkscape:window-width="3200"
   inkscape:window-height="1747"
   id="namedview85"
   showgrid="false"
   inkscape:zoom="7.0659362"
   inkscape:cx="198.28561"
   inkscape:cy="58.082185"
   inkscape:window-x="0"
   inkscape:window-y="25"
   inkscape:window-maximized="1"
   inkscape:current-layer="h_1_"
   width="512px"
   inkscape:document-rotation="0"
   fit-margin-top="0"
   fit-margin-left="0"
   fit-margin-right="0"
   fit-margin-bottom="0" />
<style
   type="text/css"
   id="style2">
	.st0{fill:#92B5E6;}
	.st1{fill:#266BCE;}
	.st2{fill:#FFFFFF;}
</style>
<g
   id="h_1_"
   transform="translate(-3.387184,-43.546252)">
	
	
	<g
   id="g81"
   transform="matrix(1.7213728,0,0,2.1211411,-173.71604,-124.96041)">
		<g
   id="g33">
			<path
   class="st2"
   d="m 286.6,188 c 0,0 22.4,6.4 26,16.2 3.6,9.8 -12.1,11.6 -12.1,11.6 z"
   id="path29" />
			<path
   class="st1"
   d="m 300.5,218.6 c -1,0 -2,-0.6 -2.5,-1.5 l -13.9,-27.8 c -0.5,-1 -0.4,-2.2 0.3,-3 0.7,-0.8 1.9,-1.2 2.9,-0.9 2.4,0.7 23.9,7.1 27.8,18 1.4,3.8 0.4,6.7 -0.6,8.4 -3.5,5.6 -12.7,6.8 -13.8,6.9 0,-0.1 -0.1,-0.1 -0.2,-0.1 z m -8.4,-25.8 9.9,19.8 c 2.6,-0.6 6.4,-1.8 7.8,-4 0.4,-0.6 0.8,-1.6 0.1,-3.5 -1.8,-5 -10.9,-9.6 -17.8,-12.3 z"
   id="path31" />
		</g>
		<g
   id="g39">
			<path
   class="st2"
   d="m 263.2,208.8 c 0,0 3.6,23 12.9,27.8 9.3,4.8 13,-10.6 13,-10.6 z"
   id="path35" />
			<path
   class="st1"
   d="m 279.6,240.3 c -1.4,0 -3,-0.3 -4.7,-1.2 -10.3,-5.3 -14,-27.3 -14.4,-29.8 -0.2,-1.1 0.3,-2.2 1.3,-2.8 0.9,-0.6 2.1,-0.6 3.1,0 l 25.9,17.2 c 1,0.6 1.4,1.8 1.2,3 -0.2,1 -2.6,10 -8.6,12.8 -1.1,0.4 -2.3,0.8 -3.8,0.8 z m -12.3,-25.4 c 1.8,7.2 5.2,16.7 10.1,19.2 1.8,0.9 2.9,0.6 3.5,0.3 2.3,-1.1 4.1,-4.7 4.9,-7.2 z"
   id="path37" />
		</g>
		<g
   id="g45">
			<path
   class="st2"
   d="m 236,191.4 c 0,0 15.8,29.1 22.5,30.9 6.7,1.8 8.4,-14.6 8.4,-14.6 z"
   id="path41" />
			<path
   class="st1"
   d="m 259.5,225.2 c -0.6,0 -1.2,-0.1 -1.8,-0.2 -7.3,-2 -20.4,-25.2 -24.3,-32.2 -0.6,-1.1 -0.4,-2.4 0.5,-3.3 0.9,-0.9 2.2,-1.1 3.3,-0.5 l 30.9,16.3 c 1,0.5 1.6,1.6 1.5,2.7 -0.2,2.1 -1.5,12.6 -6.5,16.1 -1.1,0.8 -2.3,1.1 -3.6,1.1 z m -16.4,-26.8 c 6.4,10.8 13.4,20.5 16.1,21.2 0.3,0.1 0.5,0.1 0.8,-0.1 1.8,-1.2 3.2,-6.3 3.8,-10.2 z"
   id="path43" />
		</g>
		<path
   class="st1"
   d="m 307.9,234.6 c -4.9,12.4 -44.7,-37.9 -124,-54.3 -80.3,-16.6 -78.2,-37.9 -77,-47.2 1.5,-11.8 38.3,-39.2 102,-16.7 48.4,17.3 106.2,100.1 99,118.2 z"
   id="path47" />
		<g
   id="g63">
			<g
   id="g53">
				<path
   class="st2"
   d="m 305.3,223.2 c 0,0 56.3,6.2 67.4,23.1 11.1,16.9 -30.5,10.1 -43.2,20.8 -12.7,10.7 -16.1,25.4 -24.3,25.9 -8.2,0.4 -8.2,-62.8 -8.2,-62.8 z"
   id="path49" />
				<path
   class="st1"
   d="m 305.2,295.7 c -0.9,0 -2.1,-0.3 -3.2,-1.4 -7.1,-6.7 -7.7,-50.8 -7.7,-64.2 0,-0.8 0.4,-1.6 1,-2.1 l 8.3,-7 c 0.6,-0.5 1.4,-0.7 2.1,-0.6 2.4,0.3 57.8,6.5 69.5,24.3 2.3,3.6 2.9,6.8 1.7,9.5 -2.5,5.6 -11.7,6.9 -22.3,8.4 -8.7,1.2 -18.5,2.7 -23.1,6.5 -5.4,4.6 -9.1,10 -12.3,14.8 -4.2,6.1 -7.8,11.5 -13.6,11.8 -0.2,0 -0.3,0 -0.4,0 z m -5.4,-64.2 c 0.1,25.7 2.3,54.6 5.8,58.6 2.9,-0.5 5.5,-4.4 8.8,-9.3 3.3,-4.8 7.3,-10.8 13.3,-15.9 5.8,-4.9 16,-6.4 25.9,-7.8 7.5,-1.1 16.7,-2.4 18,-5.2 0.5,-1.1 -0.6,-3.1 -1.3,-4.1 C 362,235.1 322.2,228 306.1,226.1 Z"
   id="path51" />
			</g>
			<g
   id="g61">
				<path
   class="st1"
   d="m 325.9,258 c -0.8,0 -1.6,-0.3 -2.1,-1 l -24.4,-28.8 c -1,-1.2 -0.8,-2.9 0.3,-3.9 1.2,-1 2.9,-0.8 3.9,0.3 l 24.4,28.8 c 1,1.2 0.8,2.9 -0.3,3.9 -0.6,0.5 -1.2,0.7 -1.8,0.7 z"
   id="path55" />
				<path
   class="st1"
   d="m 339,244.6 c -0.4,0 -0.8,-0.1 -1.1,-0.2 L 303.2,229 c -1.4,-0.6 -2,-2.3 -1.4,-3.7 0.6,-1.4 2.3,-2 3.7,-1.4 l 34.6,15.4 c 1.4,0.6 2,2.3 1.4,3.7 -0.4,1 -1.4,1.6 -2.5,1.6 z"
   id="path57" />
				<path
   class="st1"
   d="m 310.5,268.8 c -1.2,0 -2.4,-0.8 -2.7,-2.1 L 298.3,230 c -0.4,-1.5 0.5,-3 2,-3.4 1.5,-0.4 3,0.5 3.4,2 l 9.5,36.7 c 0.4,1.5 -0.5,3 -2,3.4 -0.3,0.1 -0.5,0.1 -0.7,0.1 z"
   id="path59" />
			</g>
		</g>
		<g
   id="g75">
			<g
   id="g69">
				<path
   class="st2"
   d="m 196.9,145.5 25.2,20 c 39.9,-13 58.1,-7.8 81.1,-6.5 13.6,0.7 55.4,-43.9 53,-58.5 -2.4,-14.6 -47.7,-14.9 -83.5,-1.7 -35.8,13.2 -75.8,46.7 -75.8,46.7 z"
   id="path65" />
				<path
   class="st1"
   d="m 221.5,168.6 -29,-23.1 2.6,-2.2 c 1.6,-1.4 40.7,-34 76.6,-47.2 29.4,-10.8 66.3,-12.9 80.7,-4.6 3.8,2.2 6,5.1 6.6,8.5 1.8,10.7 -14.7,30.1 -19.7,35.8 -11,12.3 -27,26.6 -36.1,26 -4.2,-0.2 -8.3,-0.6 -12.3,-0.9 -18.3,-1.6 -35.7,-3.1 -67.8,7.3 z m -20.1,-23.2 21.3,17 c 32.3,-10.3 50.8,-8.7 68.6,-7.1 4,0.4 8,0.7 12.1,0.9 0.1,0 0.2,0 0.2,0 5.6,0 19,-10.3 31.4,-24.1 11.7,-13.1 19.3,-25.9 18.4,-31.1 -0.3,-1.7 -1.6,-3.2 -3.9,-4.6 -11.4,-6.7 -45.4,-6.2 -75.9,5 -29.7,10.9 -62.8,36.5 -72.2,44 z"
   id="path67" />
			</g>
			<path
   class="st1"
   d="m 206,155.4 c -0.8,0 -1.5,-0.3 -2.1,-0.9 -1,-1.1 -0.9,-2.9 0.2,-3.9 0.7,-0.6 71,-62.4 147.4,-36.9 1.5,0.5 2.3,2.1 1.8,3.5 -0.5,1.5 -2.1,2.2 -3.5,1.8 -73.3,-24.5 -141.2,35.2 -141.9,35.8 -0.6,0.4 -1.3,0.6 -1.9,0.6 z"
   id="path71" />
			<path
   class="st1"
   d="m 214.3,162.1 c -0.9,0 -1.8,-0.5 -2.4,-1.3 -0.8,-1.3 -0.4,-3 0.9,-3.8 2.3,-1.4 56.9,-35.3 117.5,-19.7 1.5,0.4 2.4,1.9 2,3.4 -0.4,1.5 -1.9,2.4 -3.4,2 -58.2,-15 -112.6,18.7 -113.2,19 -0.3,0.3 -0.8,0.4 -1.4,0.4 z"
   id="path73" />
		</g>
		<path
   class="st2"
   d="m 160.5,166 c -0.9,0 -1.7,-0.4 -2.3,-1.2 -0.9,-1.3 -0.6,-3 0.7,-3.9 10.8,-7.7 13.4,-22.7 5.7,-33.6 -0.9,-1.3 -0.6,-3 0.7,-3.9 1.3,-0.9 3,-0.6 3.9,0.7 9.5,13.4 6.3,31.9 -7.1,41.4 -0.5,0.3 -1,0.5 -1.6,0.5 z"
   id="path77" />
		<path
   class="st2"
   d="m 137.5,147.1 c -0.8,0 -1.5,-0.1 -2.3,-0.2 -7.2,-1.2 -12.1,-8.1 -10.9,-15.4 0.6,-3.5 2.5,-6.6 5.4,-8.6 2.9,-2.1 6.4,-2.9 9.9,-2.3 3.5,0.6 6.6,2.5 8.6,5.4 2.1,2.9 2.9,6.4 2.3,9.9 v 0 c -0.6,3.5 -2.5,6.6 -5.4,8.6 -2.2,1.7 -4.8,2.6 -7.6,2.6 z m 0,-21.1 c -1.6,0 -3.1,0.5 -4.4,1.4 -1.7,1.2 -2.8,3 -3.2,5 -0.7,4.2 2.1,8.2 6.3,8.9 2,0.4 4.1,-0.1 5.8,-1.3 1.7,-1.2 2.8,-3 3.2,-5 v 0 c 0.3,-2 -0.1,-4.1 -1.3,-5.8 -1.2,-1.7 -3,-2.8 -5,-3.1 -0.5,0 -1,-0.1 -1.4,-0.1 z"
   id="path79" />
	</g>
</g>
</svg>
