<?xml version="1.0" encoding="utf-8"?>
<!-- Generator: Adobe Illustrator 23.1.1, SVG Export Plug-In . SVG Version: 6.00 Build 0)  -->
<svg version="1.1" id="レイヤー_1" xmlns="http://www.w3.org/2000/svg" xmlns:xlink="http://www.w3.org/1999/xlink" x="0px"
	 y="0px" viewBox="0 0 1200 1200" style="enable-background:new 0 0 1200 1200;" xml:space="preserve">
<style type="text/css">
	.st0{fill:#266BCE;}
	.st1{fill:#92B5E6;}
	.st2{fill:#FFFFFF;}
</style>
<g id="v">
	<g>
		<g>
			<path class="st0" d="M200.6,953c0-3.2,0.5-5.9,1.5-8s2.3-3.7,3.9-4.9c1.6-1.2,3.4-2,5.5-2.5c2-0.5,4.1-0.7,6.2-0.7
				c4.3,0,7.8,0.6,10.4,1.8c2.6,1.2,4.3,2.1,5,2.7c0.6,0.6,2,2.4,4.2,5.4s4.8,6.6,7.8,10.9c3,4.3,6.3,9.1,9.8,14.4
				c3.5,5.3,7,10.4,10.3,15.4s6.4,9.6,9.3,13.9c2.8,4.3,5.1,7.7,6.7,10.3v-61c0-5.1,1.5-8.6,4.4-10.7c3-2,6.9-3.1,11.7-3.1
				c3.6,0,6.7,0.4,9.5,1.3c2.7,0.9,4.4,1.4,5,1.7v124.2h-29.1c-1.1-1.9-2.8-4.6-5.2-8.3c-2.3-3.7-5.1-7.9-8.2-12.6
				s-6.4-9.7-9.9-15.1c-3.5-5.4-7-10.7-10.4-15.8c-3.4-5.2-6.6-10.1-9.7-14.6c-3.1-4.6-5.7-8.5-8-11.7v78.2h-30.6L200.6,953
				L200.6,953z"/>
			<path class="st0" d="M322,1016.8c0-7.2,1.4-13.8,4.1-19.8c2.7-6.1,6.5-11.3,11.2-15.8s10.3-7.9,16.6-10.5
				c6.3-2.5,13.1-3.8,20.4-3.8c7.2,0,13.9,1.3,20.3,3.8s11.9,6,16.7,10.5s8.5,9.7,11.2,15.8s4.1,12.7,4.1,19.8
				c0,7.2-1.4,13.8-4.1,19.8c-2.7,6.1-6.5,11.3-11.2,15.8c-4.8,4.4-10.3,7.9-16.7,10.5c-6.4,2.5-13.1,3.8-20.3,3.8
				c-7.3,0-14.1-1.3-20.4-3.8s-11.8-6-16.6-10.5c-4.8-4.4-8.5-9.7-11.2-15.8C323.3,1030.6,322,1024,322,1016.8z M374.2,1040
				c3.1,0,6-0.6,8.6-1.8c2.7-1.2,5-2.8,7-4.8s3.5-4.5,4.5-7.3c1-2.8,1.6-5.9,1.6-9.3c0-3.3-0.5-6.4-1.6-9.3
				c-1.1-2.8-2.6-5.3-4.5-7.3c-2-2-4.3-3.6-7-4.8s-5.5-1.8-8.6-1.8c-3.2,0-6.1,0.6-8.7,1.8s-4.9,2.8-6.9,4.8s-3.5,4.5-4.5,7.3
				c-1.1,2.8-1.6,5.9-1.6,9.3c0,3.3,0.5,6.4,1.6,9.3c1,2.8,2.6,5.3,4.5,7.3c2,2,4.3,3.6,6.9,4.8S371,1040,374.2,1040z"/>
			<path class="st0" d="M436.9,953.4c0-2.7,0.4-5.1,1.1-7c0.7-2,1.7-3.6,2.9-4.9c1.2-1.3,2.5-2.3,4.1-3c1.5-0.7,3.1-1.1,4.7-1.4
				c1.2-0.2,2.7-0.5,4.4-0.7c1.7-0.2,3.8-0.5,6.3-0.6c2.5-0.2,5.6-0.3,9.3-0.5c3.6-0.1,8.1-0.2,13.3-0.2c11.1,0,20.4,1.2,27.8,3.6
				c7.4,2.4,13.4,5.7,17.9,9.7c4.5,4.1,7.7,8.7,9.6,14c1.9,5.3,2.9,10.7,2.9,16.4c0,7.5-1.5,14.3-4.6,20.3s-8.2,10.9-15.2,14.7
				c1.9,3,3.9,6.4,6.1,10.4c2.2,4,4.5,8.1,7,12.5c2.4,4.4,4.8,8.9,7.1,13.6s4.6,9.3,6.7,13.7h-35.4c-0.6-1.4-1.8-3.9-3.4-7.7
				c-1.7-3.8-3.6-7.8-5.7-12.2c-2.2-4.4-4.4-8.7-6.7-12.9c-2.3-4.2-4.2-7.5-5.8-9.8c-1.7,0.2-3.5,0.4-5.3,0.4s-3.7,0-5.7,0
				c-0.7,0-1.8,0-3.1-0.1c-1.3-0.1-2.6-0.1-4-0.2c-1.4-0.1-2.6-0.1-3.7-0.2c-1.1-0.1-1.9-0.2-2.2-0.3v43h-30.2V953.4H436.9z
				 M467.1,994.7c0.4,0,0.9,0.1,1.6,0.2c0.7,0.1,1.6,0.2,2.9,0.4c1.2,0.1,2.8,0.2,4.7,0.3c1.9,0.1,4.3,0.1,7.1,0.1
				c5.3,0,9.7-0.5,13.1-1.4s6.1-2.2,8-3.7s3.2-3.3,3.9-5.4c0.7-2,1-4.1,1-6.2c0-2-0.3-4-0.9-6s-1.9-3.9-3.8-5.7
				c-1.9-1.7-4.7-3.2-8.2-4.3c-3.6-1.1-8.3-1.7-14.3-1.7c-4.3,0-7.8,0.1-10.3,0.3s-4.1,0.3-4.7,0.5v32.6H467.1z"/>
			<path class="st0" d="M544.9,1016.8c0-7.2,1.4-13.8,4.1-19.8c2.7-6.1,6.5-11.3,11.2-15.8c4.8-4.4,10.3-7.9,16.6-10.5
				c6.3-2.5,13.1-3.8,20.4-3.8c7.2,0,13.9,1.3,20.3,3.8c6.4,2.5,11.9,6,16.7,10.5c4.8,4.4,8.5,9.7,11.2,15.8s4.1,12.7,4.1,19.8
				c0,7.2-1.4,13.8-4.1,19.8c-2.7,6.1-6.5,11.3-11.2,15.8c-4.8,4.4-10.3,7.9-16.7,10.5c-6.4,2.5-13.1,3.8-20.3,3.8
				c-7.3,0-14.1-1.3-20.4-3.8c-6.3-2.5-11.8-6-16.6-10.5c-4.8-4.4-8.5-9.7-11.2-15.8C546.3,1030.6,544.9,1024,544.9,1016.8z
				 M597.2,1040c3.1,0,6-0.6,8.6-1.8c2.7-1.2,5-2.8,7-4.8s3.5-4.5,4.5-7.3c1-2.8,1.6-5.9,1.6-9.3c0-3.3-0.5-6.4-1.6-9.3
				c-1.1-2.8-2.6-5.3-4.5-7.3c-2-2-4.3-3.6-7-4.8s-5.5-1.8-8.6-1.8c-3.2,0-6.1,0.6-8.7,1.8c-2.6,1.2-4.9,2.8-6.9,4.8
				s-3.5,4.5-4.5,7.3c-1.1,2.8-1.6,5.9-1.6,9.3c0,3.3,0.5,6.4,1.6,9.3c1,2.8,2.6,5.3,4.5,7.3c2,2,4.3,3.6,6.9,4.8
				C591.1,1039.4,594,1040,597.2,1040z"/>
			<path class="st0" d="M689.7,1020c0,12.9,5.8,19.3,17.4,19.3c11.6,0,17.4-6.4,17.4-19.3v-37.3c0-4.8,1.4-8.2,4.3-10.2
				c2.8-2,6.6-3,11.3-3c3.3,0,6.4,0.4,9.1,1.2c2.7,0.8,4.4,1.3,5.2,1.6v53.2c0,6.9-1.2,12.9-3.6,18.1c-2.4,5.1-5.7,9.4-9.9,12.8
				s-9.2,6-15,7.7s-12,2.6-18.7,2.6s-12.9-0.9-18.7-2.6s-10.8-4.3-15-7.7c-4.2-3.4-7.5-7.7-9.9-12.8c-2.4-5.1-3.6-11.2-3.6-18.1
				v-42.8c0-4.8,1.4-8.2,4.3-10.2c2.8-2,6.6-3,11.3-3c3.3,0,6.4,0.4,9.1,1.2c2.7,0.8,4.4,1.3,5.2,1.6v47.7H689.7z"/>
			<path class="st0" d="M764.7,954.9c0-4.8,1.4-8.2,4.3-10.2c2.8-2,6.6-3,11.3-3c3.3,0,6.4,0.4,9.1,1.2c2.7,0.8,4.4,1.3,5.2,1.6v25
				h21.3c5.6,0,9.5,1.1,11.9,3.3c2.3,2.2,3.5,5.6,3.5,10c0,3.2-0.5,6.2-1.5,9s-1.7,4.6-2.2,5.5h-33v29.1c0,2.8,0.4,5.1,1.3,6.8
				c0.9,1.7,1.9,3,3.2,4s2.8,1.6,4.4,1.9c1.7,0.3,3.4,0.5,5.1,0.5c3.5,0,6.6-0.5,9.5-1.6c2.8-1,4.9-1.9,6.1-2.7l11.7,20.4
				c-1.1,1-2.7,2.1-4.8,3.3c-2.1,1.2-4.6,2.4-7.6,3.5s-6.3,2.1-10,2.9s-7.6,1.2-11.7,1.2c-11.6,0-20.7-3.1-27.2-9.2
				c-6.6-6.1-9.8-14.3-9.8-24.6L764.7,954.9L764.7,954.9z"/>
			<path class="st0" d="M867.4,1029.2c0.2,1.5,0.9,2.9,1.9,4.4c1,1.4,2.5,2.7,4.4,4c1.9,1.2,4.4,2.2,7.3,3c3,0.7,6.5,1.1,10.8,1.1
				c3.2,0,6.2-0.3,9.1-0.8c2.8-0.6,5.3-1.1,7.4-1.8c2.1-0.6,3.8-1.2,5.2-1.9c1.4-0.6,2.2-1,2.4-1.3l10.4,20.8
				c-1,0.6-2.6,1.5-4.9,2.6c-2.3,1.1-5.2,2.2-8.6,3.3c-3.5,1.1-7.5,2.1-12.1,2.9s-9.7,1.2-15.3,1.2c-6.9,0-13.4-1.1-19.5-3.3
				c-6.1-2.2-11.3-5.5-15.8-9.7c-4.5-4.3-8.1-9.5-10.7-15.7c-2.6-6.2-3.9-13.2-3.9-21.1c0-7.4,1.3-14.2,3.9-20.4
				c2.6-6.2,6.2-11.4,10.8-15.8c4.6-4.3,9.9-7.7,16.1-10.1c6.2-2.4,12.8-3.6,20-3.6c6.7,0,12.7,0.9,18,2.7s9.8,4.2,13.4,7.3
				c3.6,3.1,6.4,6.6,8.3,10.6c1.9,4,2.9,8,2.9,12.2c0,4.6-0.8,8.7-2.4,12.3c-1.6,3.6-4.5,6.7-8.6,9.3c-4.1,2.5-9.8,4.5-16.9,5.8
				c-7.1,1.4-16.2,2-27.2,2H867.4z M866,1009.9c8.3,0,14.7-0.3,19.3-0.9c4.6-0.6,8-1.4,10.2-2.4s3.6-2.1,4.1-3.3s0.7-2.5,0.7-3.7
				c0-2.6-1.2-4.9-3.5-6.8c-2.3-1.9-5.9-2.9-10.6-2.9c-3.3,0-6.2,0.6-8.7,1.8s-4.5,2.7-6.2,4.5c-1.7,1.9-2.9,4-3.8,6.4
				C866.6,1005,866.1,1007.5,866,1009.9z"/>
			<path class="st0" d="M939.3,1004.8c0-6.1,1-11.4,3.1-16.1c2-4.7,4.8-8.6,8.4-11.9c3.6-3.2,7.9-5.6,13-7.3s10.6-2.5,16.7-2.5
				c7.4,0,13.2,0.8,17.3,2.4c4.1,1.6,7.1,3.3,9,5.2c1.1,1.2,2,2.5,2.6,3.9s0.9,3,0.9,4.8c0,1.9-0.3,3.6-0.8,5.2
				c-0.6,1.6-1.2,3-2,4.3c-0.8,1.2-1.6,2.3-2.3,3.2s-1.3,1.5-1.7,1.9c-2.1-1-4.6-1.9-7.6-2.8c-3-0.9-6.2-1.3-9.8-1.3
				c-4.7,0-8.7,1.4-12,4.1c-3.3,2.7-4.9,7.2-4.9,13.5v52.8h-29.8v-59.4H939.3z"/>
		</g>
	</g>
	<path class="st1" d="M1010.4,863.4c-13.1,0-25.9-2.6-37.8-7.6c-11.6-4.9-22-11.9-30.9-20.8c-5-5-9.5-10.5-13.2-16.5
		c-3.8,5.9-8.2,11.4-13.2,16.5c-8.9,8.9-19.3,15.9-30.9,20.8c-24,10.1-51.7,10.1-75.7,0c-11.6-4.9-22-11.9-30.9-20.8
		c-5-5-9.5-10.5-13.2-16.5c-3.8,5.9-8.2,11.4-13.2,16.5c-8.9,8.9-19.3,15.9-30.9,20.8c-24,10.1-51.7,10.1-75.7,0
		c-11.6-4.9-22-11.9-30.9-20.8c-5-5-9.5-10.5-13.2-16.5c-3.8,5.9-8.2,11.4-13.2,16.5c-8.9,8.9-19.3,15.9-30.9,20.8
		c-24,10.1-51.7,10.1-75.7,0c-11.6-4.9-22-11.9-30.9-20.8c-5-5-9.5-10.5-13.2-16.5c-3.8,5.9-8.2,11.4-13.2,16.5
		c-8.9,8.9-19.3,15.9-30.9,20.8c-24,10.1-51.7,10.1-75.7,0c-11.6-4.9-22-11.9-30.9-20.8c-5-5-9.5-10.5-13.2-16.5
		c-3.8,5.9-8.2,11.4-13.2,16.5c-8.9,8.9-19.3,15.9-30.9,20.8c-24,10.1-51.7,10.1-75.7,0c-4.2-1.8-6.2-6.6-4.4-10.8s6.6-6.2,10.8-4.4
		c19.9,8.4,43,8.4,62.8,0c9.6-4.1,18.3-9.9,25.7-17.3c7.4-7.4,13.2-16.1,17.3-25.7c1.3-3.1,4.3-5,7.6-5c3.3,0,6.3,2,7.6,5
		c4.1,9.6,9.9,18.2,17.3,25.7c7.4,7.4,16,13.2,25.7,17.3c19.9,8.4,43,8.4,62.8,0c9.6-4.1,18.3-9.9,25.7-17.3
		c7.4-7.4,13.2-16.1,17.3-25.7c1.3-3.1,4.3-5,7.6-5s6.3,2,7.6,5c4.1,9.6,9.9,18.2,17.3,25.7c7.4,7.4,16,13.2,25.7,17.3
		c19.9,8.4,43,8.4,62.8,0c9.6-4.1,18.3-9.9,25.7-17.3c7.4-7.4,13.2-16.1,17.3-25.7c1.3-3.1,4.3-5,7.6-5s6.3,2,7.6,5
		c4.1,9.6,9.9,18.2,17.3,25.7c7.4,7.4,16,13.2,25.7,17.3c19.9,8.4,43,8.4,62.8,0c9.6-4.1,18.3-9.9,25.7-17.3
		c7.4-7.4,13.2-16.1,17.3-25.7c1.3-3.1,4.3-5,7.6-5l0,0c3.3,0,6.3,2,7.6,5c4.1,9.6,9.9,18.2,17.3,25.7c7.4,7.4,16,13.2,25.7,17.3
		c19.9,8.4,43,8.4,62.8,0c9.6-4.1,18.3-9.9,25.7-17.3c7.4-7.4,13.2-16.1,17.3-25.7c1.3-3.1,4.3-5,7.6-5s6.3,2,7.6,5
		c4.1,9.6,9.9,18.2,17.3,25.7c7.4,7.4,16,13.2,25.7,17.3c19.9,8.4,43,8.4,62.8,0c4.2-1.8,9,0.2,10.8,4.4s-0.2,9-4.4,10.8
		C1036.2,860.8,1023.5,863.4,1010.4,863.4z"/>
	<g>
		<g>
			<path class="st2" d="M731.8,433.5c0,0,66.3,18.9,76.8,48c10.6,29.1-35.7,34.2-35.7,34.2L731.8,433.5z"/>
			<path class="st0" d="M773,524c-3.1,0-6-1.7-7.4-4.6l-41.1-82.2c-1.5-2.9-1.1-6.4,1-9c2.1-2.5,5.5-3.6,8.6-2.7
				c7.2,2.1,70.6,21,82.3,53.1c4.1,11.4,1.3,19.7-1.8,24.7c-10.3,16.7-37.6,20.2-40.7,20.5C773.6,523.9,773.3,524,773,524z
				 M748.2,447.8l29.4,58.8c7.6-1.7,19-5.4,23-11.9c1.1-1.8,2.4-4.8,0.3-10.4C795.4,469.2,768.8,455.8,748.2,447.8z"/>
		</g>
		<g>
			<path class="st2" d="M662.8,495.2c0,0,10.6,68.1,38.2,82.1c27.5,14.1,38.4-31.2,38.4-31.2L662.8,495.2z"/>
			<path class="st0" d="M711.2,588.3c-4.1,0-8.8-0.9-14-3.6c-30.4-15.5-41.4-80.8-42.6-88.2c-0.5-3.2,0.9-6.5,3.7-8.2
				c2.7-1.8,6.3-1.7,9,0.1l76.6,50.9c2.9,1.9,4.3,5.4,3.5,8.8c-0.7,3-7.5,29.6-25.3,37.9C719.3,587.2,715.6,588.3,711.2,588.3z
				 M675,513.2c5.4,21.4,15.4,49.5,29.8,56.8c5.3,2.7,8.4,1.8,10.4,0.9c6.9-3.2,12-14,14.6-21.3L675,513.2z"/>
		</g>
		<g>
			<path class="st2" d="M582.2,443.8c0,0,46.7,85.9,66.6,91.3c19.9,5.4,24.7-43,24.7-43L582.2,443.8z"/>
			<path class="st0" d="M651.9,543.7c-1.7,0-3.4-0.2-5.2-0.7c-5.5-1.5-26.8-12.7-71.7-95.3c-1.7-3.2-1.2-7.2,1.4-9.7
				c2.6-2.6,6.5-3.2,9.7-1.5l91.3,48.2c3,1.6,4.7,4.8,4.4,8.1c-0.6,6.1-4.4,37.3-19.1,47.4C659.3,542.6,655.7,543.7,651.9,543.7z
				 M603.5,464.3c19.1,31.9,39.7,60.6,47.5,62.8c0.9,0.3,1.5,0.2,2.3-0.4c5.3-3.7,9.5-18.5,11.4-30.1L603.5,464.3z"/>
		</g>
		<path class="st0" d="M794.8,571.4C780.2,608,662.8,459.5,428.3,411C190.9,361.9,197,298.8,200.6,271.5
			c4.6-34.7,113.3-115.8,301.4-49.2C645.2,273,816.2,517.9,794.8,571.4z"/>
		<g>
			<g>
				<path class="st2" d="M787.3,537.6c0,0,166.5,18.2,199.3,68.3c32.9,50.1-90.2,29.7-127.6,61.5c-37.4,31.7-47.7,75.2-71.8,76.5
					s-24.4-185.5-24.4-185.5L787.3,537.6z"/>
				<path class="st0" d="M787,752.1c-2.6,0-6.1-0.8-9.6-4c-20.9-19.8-22.7-150.2-22.8-189.7c0-2.4,1.1-4.7,2.9-6.3l24.5-20.7
					c1.7-1.5,4-2.2,6.2-1.9c7,0.8,170.8,19.3,205.3,72c6.9,10.6,8.6,20,5,28c-7.5,16.5-34.5,20.4-65.9,24.9
					c-25.7,3.7-54.8,7.9-68.3,19.4c-16.1,13.6-26.9,29.6-36.5,43.7c-12.3,18.2-23,33.9-40.3,34.8C787.4,752.1,787.2,752.1,787,752.1
					z M771.1,562.2c0.4,96.2,8.9,163.5,17,173.3c8.6-1.5,16.4-13,26.1-27.4c9.6-14.2,21.6-31.9,39.4-47
					c17.1-14.5,47.4-18.9,76.7-23.1c22-3.2,49.5-7.1,53.2-15.4c1.5-3.3-1.7-9.1-3.8-12.2c-24.6-37.4-142.1-58.6-189.8-64.2
					L771.1,562.2z"/>
			</g>
			<g>
				<path class="st0" d="M848,640.6c-2.3,0-4.7-1-6.3-2.9l-72.1-85.1c-2.9-3.5-2.5-8.7,1-11.6c3.5-2.9,8.7-2.5,11.6,1l72.1,85.1
					c2.9,3.5,2.5,8.7-1,11.6C851.8,640,849.9,640.6,848,640.6z"/>
				<path class="st0" d="M886.8,600.9c-1.1,0-2.2-0.2-3.3-0.7l-102.4-45.4c-4.2-1.8-6-6.7-4.2-10.9s6.7-6,10.9-4.2l102.4,45.4
					c4.2,1.8,6,6.7,4.2,10.9C893,599.1,890,600.9,886.8,600.9z"/>
				<path class="st0" d="M802.5,672.4c-3.7,0-7-2.5-8-6.2l-28-108.5c-1.1-4.4,1.5-8.9,5.9-10s8.9,1.5,10,5.9l28,108.5
					c1.1,4.4-1.5,8.9-5.9,10C803.9,672.3,803.2,672.4,802.5,672.4z"/>
			</g>
		</g>
		<g>
			<g>
				<path class="st2" d="M466.9,307.9l74.3,59.3c118-38.5,171.8-22.9,239.9-19.3C821.4,350,944.7,218,937.6,175
					c-7.1-43.1-140.9-44.1-246.9-5.1S466.9,307.9,466.9,307.9z"/>
				<path class="st0" d="M539.6,376.4L453.9,308l7.7-6.5c4.9-4.1,120.2-100.4,226.3-139.5c86.9-32,196.1-38.3,238.5-13.6
					c11.2,6.5,17.8,15,19.4,25.1c5.2,31.7-43.3,88.9-58.4,105.7c-32.5,36.3-79.7,78.4-106.8,76.8c-12.5-0.7-24.7-1.7-36.4-2.8
					C690,348.5,638.7,344,543.8,375L539.6,376.4z M480,307.8l62.9,50.1c95.5-30.5,150-25.7,202.8-21.1c11.6,1,23.6,2.1,35.9,2.7
					c16.3,0.9,56.4-29.8,93.6-71.3c34.6-38.6,56.9-76.5,54.4-92c-0.8-5-4.7-9.6-11.4-13.5c-33.8-19.7-134.3-18.4-224.5,14.8
					C605.7,209.9,508,285.4,480,307.8z"/>
			</g>
			<path class="st0" d="M493.6,337.4c-2.3,0-4.5-0.9-6.1-2.7c-3-3.4-2.7-8.6,0.6-11.6c2.1-1.9,209.8-184.6,435.6-109.2
				c4.3,1.4,6.7,6.1,5.2,10.4c-1.4,4.3-6.1,6.7-10.4,5.2c-216.8-72.4-417.4,104-419.4,105.8C497.5,336.7,495.5,337.4,493.6,337.4z"
				/>
			<path class="st0" d="M518.4,357.2c-2.7,0-5.4-1.4-7-3.8c-2.4-3.8-1.3-8.9,2.6-11.4c6.8-4.3,168.2-104.4,347.5-58.2
				c4.4,1.1,7.1,5.6,5.9,10c-1.1,4.4-5.6,7.1-10,5.9c-172.1-44.4-332.9,55.2-334.5,56.2C521.4,356.7,519.9,357.2,518.4,357.2z"/>
		</g>
		<path class="st2" d="M359.2,368.6c-2.6,0-5.1-1.2-6.7-3.5c-2.6-3.7-1.8-8.9,2-11.5c15.5-11,25.8-27.4,29-46.1
			c3.2-18.8-1.1-37.6-12.1-53.2c-2.6-3.7-1.8-8.9,2-11.5c3.7-2.6,8.9-1.7,11.5,2c27.9,39.5,18.6,94.3-20.9,122.3
			C362.5,368.1,360.9,368.6,359.2,368.6z"/>
		<path class="st2" d="M291.3,312.6c-2.2,0-4.5-0.2-6.7-0.6c-21.4-3.7-35.8-24-32.1-45.4c3.7-21.4,24-35.8,45.4-32.1
			c10.4,1.8,19.4,7.5,25.5,16c6.1,8.6,8.4,19,6.7,29.4c-1.8,10.4-7.5,19.4-16,25.5C307.2,310.1,299.4,312.6,291.3,312.6z
			 M291.2,250.4c-10.9,0-20.6,7.9-22.5,19c-2.1,12.4,6.2,24.2,18.7,26.4c6,1,12.1-0.3,17-3.9c5-3.5,8.3-8.8,9.3-14.8
			s-0.3-12.1-3.9-17c-3.5-5-8.8-8.3-14.8-9.3C293.8,250.5,292.5,250.4,291.2,250.4z"/>
	</g>
</g>
</svg>
