<?xml version="1.0" encoding="utf-8"?>
<!-- Generator: Adobe Illustrator 23.1.1, SVG Export Plug-In . SVG Version: 6.00 Build 0)  -->
<svg version="1.1" id="レイヤー_1" xmlns="http://www.w3.org/2000/svg" xmlns:xlink="http://www.w3.org/1999/xlink" x="0px"
	 y="0px" viewBox="0 0 1200 430" style="enable-background:new 0 0 1200 430;" xml:space="preserve">
<style type="text/css">
	.st0{fill:#92B5E6;}
	.st1{fill:#266BCE;}
	.st2{fill:#FFFFFF;}
</style>
<g id="h_1_">
	<g>
		<g>
			<path class="st0" d="M1113.9,334.3c-0.9-2.1-3.3-3.1-5.4-2.2c-10,4.2-21.5,4.2-31.5,0c-4.8-2-9.1-5-12.9-8.7
				c-3.7-3.7-6.6-8-8.7-12.9c0-0.1-0.1-0.2-0.1-0.2c-0.1-0.2-0.1-0.3-0.2-0.4s-0.1-0.2-0.2-0.3c-0.1-0.1-0.2-0.2-0.3-0.3
				c-0.1-0.1-0.2-0.2-0.3-0.3c-0.1-0.1-0.2-0.2-0.3-0.3c-0.1-0.1-0.3-0.2-0.4-0.2s-0.2-0.1-0.3-0.1l0,0c-0.8-0.3-1.8-0.4-2.7-0.1
				c-0.1,0-0.3,0.1-0.4,0.1l0,0c-0.1,0-0.2,0.1-0.3,0.2c-0.1,0.1-0.2,0.1-0.4,0.2c-0.1,0.1-0.2,0.2-0.3,0.3
				c-0.1,0.1-0.2,0.2-0.3,0.2c-0.1,0.1-0.2,0.2-0.3,0.3c-0.1,0.1-0.2,0.2-0.2,0.3c-0.1,0.1-0.2,0.3-0.2,0.4s-0.1,0.2-0.1,0.2
				c-2,4.8-5,9.1-8.7,12.9c-3.7,3.7-8,6.6-12.9,8.7c-10,4.2-21.5,4.2-31.5,0c-4.8-2-9.1-5-12.9-8.7c-3.7-3.7-6.6-8-8.7-12.9
				c0-0.1-0.1-0.2-0.1-0.2c-0.1-0.2-0.1-0.3-0.2-0.4c-0.1-0.1-0.2-0.2-0.2-0.3c-0.1-0.1-0.2-0.2-0.3-0.3c-0.1-0.1-0.2-0.2-0.3-0.3
				c-0.1-0.1-0.2-0.2-0.3-0.3c-0.1-0.1-0.3-0.2-0.4-0.2c-0.1,0-0.2-0.1-0.3-0.1l0,0c-0.8-0.3-1.8-0.4-2.7-0.1
				c-0.1,0-0.3,0.1-0.4,0.1l0,0c-0.1,0-0.2,0.1-0.3,0.2s-0.3,0.1-0.4,0.2c-0.1,0.1-0.2,0.2-0.3,0.3c-0.1,0.1-0.2,0.2-0.3,0.3
				c-0.1,0.1-0.2,0.2-0.3,0.3c-0.1,0.1-0.2,0.2-0.2,0.3c-0.1,0.1-0.2,0.3-0.2,0.4s-0.1,0.2-0.1,0.2c-2,4.8-5,9.1-8.7,12.9
				c-3.7,3.7-8,6.6-12.9,8.7c-10,4.2-21.5,4.2-31.5,0c-4.8-2-9.1-5-12.9-8.7c-3.7-3.7-6.6-8-8.7-12.9c0-0.1-0.1-0.2-0.1-0.2
				c-0.1-0.2-0.1-0.3-0.2-0.4c-0.1-0.1-0.2-0.2-0.2-0.3c-0.1-0.1-0.2-0.2-0.3-0.3c-0.1-0.1-0.2-0.2-0.3-0.3
				c-0.1-0.1-0.2-0.2-0.3-0.3c-0.1-0.1-0.3-0.2-0.4-0.2c-0.1,0-0.2-0.1-0.3-0.1l0,0c-0.2-0.1-0.5-0.2-0.7-0.2l0,0
				c-0.7-0.1-1.4-0.1-2,0.1c-0.1,0-0.2,0.1-0.3,0.1l0,0c-0.1,0.1-0.2,0.1-0.4,0.2c-0.1,0.1-0.2,0.1-0.3,0.2s-0.2,0.2-0.4,0.3
				c-0.1,0.1-0.2,0.1-0.3,0.2s-0.2,0.2-0.3,0.4c-0.1,0.1-0.1,0.2-0.2,0.3c-0.1,0.1-0.2,0.3-0.2,0.5c0,0.1-0.1,0.2-0.1,0.2
				c-2,4.8-5,9.1-8.7,12.9c-3.7,3.7-8,6.6-12.9,8.7c-10,4.2-21.5,4.2-31.5,0c-4.8-2-9.1-5-12.9-8.7c-3.7-3.7-6.6-8-8.7-12.9
				c0-0.1-0.1-0.2-0.1-0.2c-0.1-0.2-0.1-0.3-0.2-0.4c-0.1-0.1-0.2-0.2-0.2-0.3c-0.1-0.1-0.2-0.2-0.3-0.3c-0.1-0.1-0.2-0.2-0.3-0.3
				c-0.1-0.1-0.2-0.2-0.3-0.3c-0.1-0.1-0.3-0.2-0.4-0.2c-0.1,0-0.2-0.1-0.3-0.1l0,0c-0.9-0.4-1.8-0.4-2.8-0.1
				c-0.1,0-0.3,0.1-0.4,0.1l0,0c-0.1,0.1-0.2,0.1-0.3,0.2s-0.2,0.1-0.3,0.2s-0.2,0.2-0.4,0.3c-0.1,0.1-0.2,0.1-0.3,0.2
				s-0.2,0.2-0.3,0.4c-0.1,0.1-0.2,0.2-0.2,0.3c-0.1,0.1-0.2,0.3-0.2,0.5c0,0.1-0.1,0.2-0.1,0.2c-2,4.8-5,9.1-8.7,12.9
				c-3.7,3.7-8,6.6-12.9,8.7c-10,4.2-21.5,4.2-31.5,0c-4.8-2-9.1-5-12.9-8.7c-3.7-3.7-6.6-8-8.7-12.9c0-0.1-0.1-0.2-0.1-0.2
				c-0.1-0.2-0.1-0.3-0.2-0.4c-0.1-0.1-0.2-0.2-0.2-0.3c-0.1-0.1-0.2-0.2-0.3-0.3c-0.1-0.1-0.2-0.2-0.3-0.3
				c-0.1-0.1-0.2-0.2-0.3-0.3c-0.1-0.1-0.3-0.2-0.4-0.2c-0.1,0-0.2-0.1-0.3-0.1l0,0c-0.8-0.3-1.8-0.4-2.7-0.1
				c-0.1,0-0.3,0.1-0.4,0.1l0,0c-0.1,0-0.2,0.1-0.3,0.2s-0.2,0.1-0.4,0.2c-0.1,0.1-0.2,0.2-0.3,0.3c-0.1,0.1-0.2,0.2-0.3,0.2
				c-0.1,0.1-0.2,0.2-0.3,0.3c-0.1,0.1-0.2,0.2-0.2,0.3c-0.1,0.1-0.2,0.3-0.2,0.5c0,0.1-0.1,0.2-0.1,0.2c-2,4.8-5,9.1-8.7,12.9
				c-3.7,3.7-8,6.6-12.9,8.7c-10,4.2-21.5,4.2-31.5,0c-4.8-2-9.1-5-12.9-8.7c-3.7-3.7-6.6-8-8.7-12.9c0-0.1-0.1-0.2-0.1-0.2
				c-0.1-0.2-0.1-0.3-0.2-0.4c-0.1-0.1-0.1-0.2-0.2-0.3c-0.1-0.1-0.2-0.2-0.3-0.3c-0.1-0.1-0.2-0.2-0.3-0.3
				c-0.1-0.1-0.2-0.2-0.3-0.3c-0.1-0.1-0.3-0.2-0.4-0.2c-0.1,0-0.2-0.1-0.3-0.1l0,0c-0.8-0.3-1.8-0.4-2.7-0.1
				c-0.1,0-0.3,0.1-0.4,0.1l0,0c-0.1,0-0.2,0.1-0.3,0.2s-0.3,0.1-0.4,0.2c-0.1,0.1-0.2,0.2-0.3,0.3c-0.1,0.1-0.2,0.2-0.3,0.3
				c-0.1,0.1-0.2,0.2-0.3,0.3c-0.1,0.1-0.2,0.2-0.2,0.3c-0.1,0.1-0.2,0.3-0.2,0.4s-0.1,0.2-0.1,0.2c-2,4.8-5,9.1-8.7,12.9
				c-3.7,3.7-8,6.6-12.9,8.7c-10,4.2-21.5,4.2-31.5,0c-4.8-2-9.1-5-12.9-8.7c-3.7-3.7-6.6-8-8.7-12.9c0-0.1-0.1-0.2-0.1-0.2
				c-0.1-0.2-0.1-0.3-0.2-0.4c-0.1-0.1-0.1-0.2-0.2-0.3c-0.1-0.1-0.2-0.2-0.3-0.3c-0.1-0.1-0.2-0.2-0.3-0.3
				c-0.1-0.1-0.2-0.2-0.3-0.3c-0.1-0.1-0.3-0.2-0.4-0.2c-0.1,0-0.2-0.1-0.3-0.1l0,0c-0.2-0.1-0.5-0.2-0.7-0.2l0,0
				c-0.7-0.1-1.4-0.1-2,0.1c-0.1,0-0.2,0.1-0.3,0.1l0,0c-0.1,0.1-0.2,0.1-0.4,0.2c-0.1,0.1-0.2,0.1-0.3,0.2s-0.2,0.2-0.4,0.3
				c-0.1,0.1-0.2,0.1-0.3,0.2s-0.2,0.2-0.3,0.4c-0.1,0.1-0.1,0.2-0.2,0.3c-0.1,0.1-0.2,0.3-0.3,0.5c0,0.1-0.1,0.2-0.1,0.2
				c-2,4.8-4.9,9.1-8.7,12.9c-3.7,3.7-8,6.6-12.9,8.7c-10,4.2-21.5,4.2-31.5,0c-4.8-2-9.1-5-12.9-8.7c-3.7-3.7-6.6-8-8.7-12.9
				c0-0.1-0.1-0.2-0.1-0.2c-0.1-0.2-0.1-0.3-0.2-0.4s-0.1-0.2-0.2-0.3c-0.1-0.1-0.2-0.2-0.3-0.3c-0.1-0.1-0.2-0.2-0.3-0.3
				c-0.1-0.1-0.2-0.2-0.3-0.3c-0.1-0.1-0.3-0.2-0.4-0.2s-0.2-0.1-0.3-0.1l0,0c-0.9-0.4-1.8-0.4-2.8-0.1c-0.1,0-0.3,0.1-0.4,0.1l0,0
				c-0.1,0.1-0.2,0.1-0.3,0.2c-0.1,0.1-0.2,0.1-0.3,0.2c-0.1,0.1-0.2,0.2-0.4,0.3c-0.1,0.1-0.2,0.1-0.3,0.2
				c-0.1,0.1-0.2,0.2-0.3,0.4c-0.1,0.1-0.2,0.2-0.2,0.3c-0.1,0.1-0.2,0.3-0.2,0.5c0,0.1-0.1,0.2-0.1,0.2c-2,4.8-5,9.1-8.7,12.9
				c-3.7,3.7-8,6.6-12.9,8.7c-10,4.2-21.5,4.2-31.5,0c-4.8-2-9.1-5-12.9-8.7c-3.7-3.7-6.6-8-8.7-12.9c0-0.1-0.1-0.2-0.1-0.2
				c-0.1-0.2-0.1-0.3-0.2-0.4s-0.1-0.2-0.2-0.3c-0.1-0.1-0.2-0.2-0.3-0.3c-0.1-0.1-0.2-0.2-0.3-0.3c-0.1-0.1-0.2-0.2-0.3-0.3
				c-0.1-0.1-0.3-0.2-0.4-0.2s-0.2-0.1-0.3-0.1l0,0c-0.8-0.3-1.8-0.4-2.7-0.1c-0.1,0-0.3,0.1-0.4,0.1l0,0c-0.1,0-0.2,0.1-0.3,0.2
				c-0.1,0.1-0.2,0.1-0.4,0.2c-0.1,0.1-0.2,0.2-0.3,0.3c-0.1,0.1-0.2,0.2-0.3,0.2c-0.1,0.1-0.2,0.2-0.3,0.3
				c-0.1,0.1-0.2,0.2-0.2,0.3c-0.1,0.1-0.2,0.3-0.2,0.4s-0.1,0.2-0.1,0.2c-2,4.8-5,9.1-8.7,12.9c-3.7,3.7-8,6.6-12.9,8.7
				c-10,4.2-21.5,4.2-31.5,0c-4.8-2-9.1-5-12.9-8.7c-3.7-3.7-6.6-8-8.7-12.9c0-0.1-0.1-0.2-0.1-0.2c-0.1-0.1-0.1-0.3-0.2-0.4
				s-0.2-0.2-0.2-0.3c-0.1-0.1-0.2-0.2-0.3-0.3c-0.1-0.1-0.2-0.2-0.3-0.3c-0.1-0.1-0.2-0.2-0.3-0.2c-0.1-0.1-0.3-0.2-0.5-0.3
				c-0.1,0-0.1-0.1-0.2-0.1l0,0c-0.8-0.3-1.8-0.4-2.7-0.1c-0.2,0-0.3,0.1-0.5,0.1l0,0c-0.1,0-0.2,0.1-0.3,0.2
				c-0.1,0.1-0.3,0.1-0.4,0.2s-0.2,0.2-0.3,0.3c-0.1,0.1-0.2,0.2-0.3,0.3c-0.1,0.1-0.2,0.2-0.3,0.3c-0.1,0.1-0.2,0.2-0.2,0.3
				c-0.1,0.1-0.2,0.3-0.2,0.4s-0.1,0.2-0.1,0.2c-2,4.8-5,9.1-8.7,12.9c-3.7,3.7-8,6.6-12.9,8.7c-10,4.2-21.5,4.2-31.5,0
				c-4.8-2-9.1-5-12.9-8.7c-3.7-3.7-6.6-8-8.7-12.9c0-0.1-0.1-0.2-0.1-0.2c-0.1-0.1-0.1-0.3-0.2-0.4c-0.1-0.1-0.2-0.2-0.2-0.3
				c-0.1-0.1-0.2-0.2-0.3-0.3c-0.1-0.1-0.2-0.2-0.3-0.3c-0.1-0.1-0.2-0.2-0.3-0.2c-0.1-0.1-0.3-0.2-0.5-0.3c-0.1,0-0.1-0.1-0.2-0.1
				l0,0c-0.9-0.4-1.8-0.4-2.8-0.1c-0.1,0-0.3,0.1-0.4,0.1l0,0c-0.1,0.1-0.2,0.1-0.4,0.2c-0.1,0.1-0.2,0.1-0.3,0.2s-0.2,0.2-0.4,0.3
				c-0.1,0.1-0.2,0.1-0.3,0.2s-0.2,0.2-0.3,0.4c-0.1,0.1-0.1,0.2-0.2,0.3c-0.1,0.1-0.2,0.3-0.2,0.5c0,0.1-0.1,0.2-0.1,0.2
				c-2,4.8-5,9.1-8.7,12.9c-3.7,3.7-8,6.6-12.9,8.7c-10,4.2-21.5,4.2-31.5,0c-4.8-2-9.1-5-12.9-8.7c-3.7-3.7-6.6-8-8.7-12.9
				c0-0.1-0.1-0.2-0.1-0.2c-0.1-0.1-0.1-0.3-0.2-0.4c-0.1-0.1-0.2-0.2-0.2-0.3c-0.1-0.1-0.2-0.2-0.3-0.3c-0.1-0.1-0.2-0.2-0.3-0.3
				c-0.1-0.1-0.2-0.2-0.3-0.2c-0.1-0.1-0.3-0.2-0.5-0.3c-0.1,0-0.1-0.1-0.2-0.1l0,0c-0.8-0.4-1.8-0.4-2.7-0.1
				c-0.1,0-0.3,0.1-0.4,0.1l0,0c-0.1,0.1-0.2,0.1-0.3,0.2s-0.2,0.1-0.3,0.2s-0.2,0.2-0.4,0.3c-0.1,0.1-0.2,0.1-0.3,0.2
				s-0.2,0.2-0.3,0.4c-0.1,0.1-0.2,0.2-0.2,0.3c-0.1,0.1-0.2,0.3-0.2,0.5c0,0.1-0.1,0.2-0.1,0.2c-2,4.8-5,9.1-8.7,12.9
				c-3.7,3.7-8,6.6-12.9,8.7c-10,4.2-21.5,4.2-31.5,0c-2.1-0.9-4.5,0.1-5.4,2.2s0.1,4.5,2.2,5.4c6,2.5,12.4,3.8,19,3.8
				s13-1.3,19-3.8c5.8-2.5,11-6,15.5-10.4c2.5-2.5,4.7-5.3,6.6-8.3c1.9,3,4.1,5.7,6.6,8.3c4.5,4.5,9.7,8,15.5,10.4
				c6,2.5,12.4,3.8,19,3.8s13-1.3,19-3.8c5.8-2.5,11-6,15.5-10.4c2.5-2.5,4.7-5.3,6.6-8.3c1.9,3,4.1,5.7,6.6,8.3
				c4.5,4.5,9.7,8,15.5,10.4c6,2.5,12.4,3.8,19,3.8c6.6,0,13-1.3,19-3.8c5.8-2.5,11-6,15.5-10.4c2.5-2.5,4.7-5.3,6.6-8.3
				c1.9,3,4.1,5.7,6.6,8.3c4.5,4.5,9.7,8,15.5,10.4c6,2.5,12.4,3.8,19,3.8s13-1.3,19-3.8c5.8-2.5,11-6,15.5-10.4
				c2.5-2.5,4.7-5.3,6.6-8.3c1.9,3,4.1,5.7,6.6,8.3c4.5,4.5,9.7,8,15.5,10.4c6,2.5,12.4,3.8,19,3.8s13-1.3,19-3.8
				c5.8-2.5,11-6,15.5-10.4c2.5-2.5,4.7-5.3,6.6-8.3c1.9,3,4.1,5.7,6.6,8.3c4.5,4.5,9.7,8,15.5,10.4c6,2.5,12.4,3.8,19,3.8
				s13-1.3,19-3.8c5.8-2.5,11-6,15.5-10.4c2.5-2.5,4.7-5.3,6.6-8.3c1.9,3,4.1,5.7,6.6,8.3c4.5,4.5,9.7,8,15.5,10.4
				c6,2.5,12.4,3.8,19,3.8s13-1.3,19-3.8c5.8-2.5,11-6,15.5-10.4c2.5-2.5,4.7-5.3,6.6-8.3c1.9,3,4.1,5.7,6.6,8.3
				c4.5,4.5,9.7,8,15.5,10.4c6,2.5,12.4,3.8,19,3.8s13-1.3,19-3.8c5.8-2.5,11-6,15.5-10.4c2.5-2.5,4.7-5.3,6.6-8.3
				c1.9,3,4.1,5.7,6.6,8.3c4.5,4.5,9.7,8,15.5,10.4c6,2.5,12.4,3.8,19,3.8s13-1.3,19-3.8c5.8-2.5,11-6,15.5-10.4
				c2.5-2.5,4.7-5.3,6.6-8.3c1.9,3,4.1,5.7,6.6,8.3c4.5,4.5,9.7,8,15.5,10.4c6,2.5,12.4,3.8,19,3.8s13-1.3,19-3.8
				c5.8-2.5,11-6,15.5-10.4c2.5-2.5,4.7-5.3,6.6-8.3c1.9,3,4.1,5.7,6.6,8.3c4.5,4.5,9.7,8,15.5,10.4c6,2.5,12.4,3.8,19,3.8
				s13-1.3,19-3.8c5.8-2.5,11-6,15.5-10.4c2.5-2.5,4.7-5.3,6.6-8.3c1.9,3,4.1,5.7,6.6,8.3c4.5,4.5,9.7,8,15.5,10.4
				c6,2.5,12.4,3.8,19,3.8s13-1.3,19-3.8c5.8-2.5,11-6,15.5-10.4c2.5-2.5,4.7-5.3,6.6-8.3c1.9,3,4.1,5.7,6.6,8.3
				c4.5,4.5,9.7,8,15.5,10.4c6,2.5,12.4,3.8,19,3.8s13-1.3,19-3.8C1113.9,338.9,1114.8,336.4,1113.9,334.3z"/>
		</g>
	</g>
	<g id="text">
		<g>
			<path class="st1" d="M403.6,169.2c0-2.7,0.4-5,1.3-6.8c0.8-1.8,1.9-3.2,3.3-4.2s2.9-1.7,4.7-2.1c1.7-0.4,3.5-0.6,5.3-0.6
				c3.7,0,6.6,0.5,8.8,1.5c2.2,1,3.6,1.8,4.3,2.3c0.5,0.5,1.7,2.1,3.6,4.6c1.8,2.5,4.1,5.6,6.6,9.3c2.6,3.7,5.4,7.8,8.4,12.2
				c3,4.5,5.9,8.8,8.8,13.1c2.8,4.3,5.5,8.2,7.9,11.8s4.3,6.6,5.7,8.8v-52c0-4.3,1.3-7.3,3.8-9.1c2.5-1.7,5.8-2.6,9.9-2.6
				c3.1,0,5.7,0.4,8.1,1.1c2.3,0.7,3.7,1.2,4.3,1.4v105.8h-24.8c-0.9-1.6-2.4-3.9-4.4-7.1s-4.3-6.7-6.9-10.7s-5.4-8.3-8.4-12.9
				c-3-4.6-5.9-9.1-8.8-13.5s-5.7-8.6-8.3-12.5c-2.6-3.9-4.9-7.2-6.8-10v66.6h-26.1v-94.4H403.6z"/>
			<path class="st1" d="M507,223.5c0-6.1,1.2-11.7,3.5-16.9s5.5-9.6,9.6-13.4c4.1-3.8,8.8-6.8,14.1-8.9c5.4-2.2,11.2-3.2,17.4-3.2
				c6.1,0,11.9,1.1,17.3,3.2c5.4,2.2,10.2,5.1,14.2,8.9c4.1,3.8,7.2,8.3,9.6,13.4c2.3,5.2,3.5,10.8,3.5,16.9
				c0,6.1-1.2,11.7-3.5,16.9s-5.5,9.6-9.6,13.4s-8.8,6.8-14.2,8.9c-5.4,2.2-11.2,3.2-17.3,3.2c-6.2,0-12-1.1-17.4-3.2
				c-5.4-2.2-10.1-5.1-14.1-8.9s-7.2-8.3-9.6-13.4C508.1,235.2,507,229.6,507,223.5z M551.5,243.2c2.6,0,5.1-0.5,7.3-1.5
				c2.3-1,4.2-2.4,5.9-4.1c1.7-1.7,3-3.8,3.9-6.2s1.3-5.1,1.3-7.9c0-2.8-0.4-5.5-1.3-7.9c-0.9-2.4-2.2-4.5-3.9-6.2s-3.7-3.1-5.9-4.1
				c-2.3-1-4.7-1.5-7.3-1.5c-2.7,0-5.2,0.5-7.4,1.5s-4.2,2.4-5.8,4.1c-1.7,1.7-3,3.8-3.9,6.2s-1.3,5.1-1.3,7.9
				c0,2.8,0.4,5.5,1.3,7.9c0.9,2.4,2.2,4.5,3.9,6.2s3.6,3.1,5.8,4.1S548.8,243.2,551.5,243.2z"/>
			<path class="st1" d="M604.9,169.5c0-2.3,0.3-4.3,0.9-6c0.6-1.7,1.4-3.1,2.4-4.2c1-1.1,2.2-2,3.5-2.5c1.3-0.6,2.7-1,4-1.2
				c1.1-0.2,2.3-0.4,3.7-0.6c1.4-0.2,3.2-0.4,5.4-0.6c2.2-0.2,4.8-0.3,7.9-0.4c3.1-0.1,6.9-0.2,11.3-0.2c9.5,0,17.4,1,23.7,3.1
				s11.4,4.8,15.2,8.3s6.6,7.5,8.2,11.9c1.6,4.5,2.4,9.1,2.4,14c0,6.4-1.3,12.2-3.9,17.3c-2.6,5.1-7,9.3-12.9,12.6
				c1.6,2.5,3.3,5.5,5.2,8.8s3.9,6.9,5.9,10.7c2.1,3.7,4.1,7.6,6.1,11.6c2,4,3.9,7.9,5.7,11.7h-30.2c-0.5-1.2-1.5-3.3-2.9-6.6
				c-1.4-3.2-3.1-6.7-4.9-10.4s-3.7-7.4-5.7-11c-1.9-3.6-3.6-6.4-5-8.4c-1.5,0.2-3,0.3-4.5,0.3s-3.1,0-4.8,0c-0.6,0-1.5,0-2.6-0.1
				s-2.2-0.1-3.4-0.2c-1.2,0-2.2-0.1-3.2-0.2c-0.9-0.1-1.6-0.1-1.9-0.2v36.6h-25.7L604.9,169.5L604.9,169.5z M630.6,204.7
				c0.3,0,0.8,0.1,1.3,0.2c0.6,0.1,1.4,0.2,2.4,0.3c1.1,0.1,2.4,0.2,4,0.2c1.6,0.1,3.7,0.1,6.1,0.1c4.5,0,8.2-0.4,11.1-1.2
				c2.9-0.8,5.2-1.8,6.8-3.2c1.6-1.3,2.7-2.8,3.3-4.6c0.6-1.7,0.9-3.5,0.9-5.3c0-1.7-0.3-3.4-0.8-5.1c-0.5-1.7-1.6-3.3-3.2-4.8
				c-1.6-1.5-4-2.7-7-3.6c-3.1-0.9-7.1-1.4-12.2-1.4c-3.7,0-6.6,0.1-8.8,0.2c-2.2,0.2-3.5,0.3-4,0.4v27.8H630.6z"/>
			<path class="st1" d="M697,223.5c0-6.1,1.2-11.7,3.5-16.9s5.5-9.6,9.6-13.4c4.1-3.8,8.8-6.8,14.1-8.9c5.4-2.2,11.2-3.2,17.4-3.2
				c6.1,0,11.9,1.1,17.3,3.2c5.4,2.2,10.2,5.1,14.2,8.9c4.1,3.8,7.2,8.3,9.6,13.4c2.3,5.2,3.5,10.8,3.5,16.9
				c0,6.1-1.2,11.7-3.5,16.9s-5.5,9.6-9.6,13.4s-8.8,6.8-14.2,8.9c-5.4,2.2-11.2,3.2-17.3,3.2c-6.2,0-12-1.1-17.4-3.2
				c-5.4-2.2-10.1-5.1-14.1-8.9c-4.1-3.8-7.2-8.3-9.6-13.4C698.1,235.2,697,229.6,697,223.5z M741.5,243.2c2.6,0,5.1-0.5,7.3-1.5
				c2.3-1,4.2-2.4,5.9-4.1c1.7-1.7,3-3.8,3.9-6.2s1.3-5.1,1.3-7.9c0-2.8-0.4-5.5-1.3-7.9c-0.9-2.4-2.2-4.5-3.9-6.2s-3.7-3.1-5.9-4.1
				c-2.3-1-4.7-1.5-7.3-1.5c-2.7,0-5.2,0.5-7.4,1.5s-4.2,2.4-5.8,4.1c-1.7,1.7-3,3.8-3.9,6.2s-1.3,5.1-1.3,7.9
				c0,2.8,0.4,5.5,1.3,7.9c0.9,2.4,2.2,4.5,3.9,6.2s3.6,3.1,5.8,4.1S738.8,243.2,741.5,243.2z"/>
			<path class="st1" d="M820.3,226.2c0,11,4.9,16.4,14.8,16.4c9.9,0,14.8-5.5,14.8-16.4v-31.7c0-4.1,1.2-7,3.6-8.7
				c2.4-1.7,5.6-2.5,9.6-2.5c2.8,0,5.4,0.3,7.7,1s3.8,1.1,4.4,1.3v45.3c0,5.9-1,11-3.1,15.4s-4.9,8-8.4,10.9
				c-3.6,2.9-7.8,5.1-12.8,6.6c-4.9,1.5-10.3,2.2-16,2.2s-11-0.7-16-2.2c-4.9-1.5-9.2-3.7-12.8-6.6s-6.4-6.5-8.4-10.9
				c-2.1-4.4-3.1-9.5-3.1-15.4v-36.5c0-4.1,1.2-7,3.6-8.7c2.4-1.7,5.6-2.5,9.6-2.5c2.8,0,5.4,0.3,7.7,1s3.8,1.1,4.4,1.3v40.7H820.3z
				"/>
			<path class="st1" d="M884.2,170.7c0-4.1,1.2-7,3.6-8.7c2.4-1.7,5.6-2.5,9.6-2.5c2.8,0,5.4,0.3,7.7,1s3.8,1.1,4.4,1.3v21.3h18.2
				c4.7,0,8.1,0.9,10.1,2.8c2,1.9,3,4.7,3,8.5c0,2.7-0.4,5.3-1.3,7.7c-0.8,2.4-1.5,3.9-1.9,4.7h-28.1v24.8c0,2.4,0.4,4.3,1.1,5.8
				c0.7,1.4,1.7,2.6,2.8,3.4c1.1,0.8,2.4,1.4,3.8,1.7c1.4,0.3,2.9,0.4,4.3,0.4c2.9,0,5.6-0.4,8.1-1.3c2.4-0.9,4.2-1.7,5.2-2.3
				l9.9,17.4c-0.9,0.8-2.3,1.8-4.1,2.8c-1.8,1.1-3.9,2.1-6.5,3c-2.5,1-5.4,1.8-8.5,2.4c-3.2,0.7-6.5,1-9.9,1
				c-9.9,0-17.6-2.6-23.2-7.8c-5.6-5.2-8.4-12.2-8.4-20.9v-66.5H884.2z"/>
			<path class="st1" d="M971.8,234.1c0.2,1.3,0.8,2.5,1.7,3.7s2.2,2.3,3.8,3.4c1.6,1.1,3.7,1.9,6.2,2.5s5.6,0.9,9.2,0.9
				c2.7,0,5.3-0.2,7.7-0.7s4.5-1,6.3-1.5s3.3-1,4.4-1.6c1.2-0.5,1.8-0.9,2.1-1.1l8.8,17.7c-0.8,0.5-2.2,1.3-4.2,2.2
				c-2,0.9-4.4,1.9-7.3,2.8c-3,1-6.4,1.8-10.3,2.4c-3.9,0.7-8.3,1-13,1c-5.9,0-11.4-0.9-16.6-2.8c-5.2-1.9-9.7-4.7-13.5-8.3
				c-3.8-3.6-6.9-8.1-9.1-13.3c-2.2-5.3-3.3-11.3-3.3-18c0-6.3,1.1-12.1,3.3-17.4c2.2-5.3,5.3-9.7,9.2-13.4s8.5-6.6,13.7-8.6
				c5.3-2.1,10.9-3.1,17.1-3.1c5.7,0,10.8,0.8,15.3,2.3s8.3,3.6,11.4,6.2c3.1,2.6,5.5,5.6,7.1,9s2.4,6.8,2.4,10.4
				c0,3.9-0.7,7.4-2.1,10.5c-1.4,3.1-3.8,5.7-7.3,7.9s-8.3,3.8-14.4,5c-6.1,1.2-13.8,1.7-23.1,1.7h-5.5V234.1z M970.5,217.6
				c7.1,0,12.5-0.3,16.4-0.8s6.8-1.2,8.7-2.1c1.9-0.8,3.1-1.8,3.5-2.8c0.4-1.1,0.6-2.1,0.6-3.2c0-2.2-1-4.1-3-5.8
				c-2-1.6-5-2.4-9-2.4c-2.8,0-5.3,0.5-7.4,1.5c-2.1,1-3.9,2.3-5.3,3.9s-2.5,3.4-3.2,5.4C971,213.5,970.6,215.5,970.5,217.6z"/>
			<path class="st1" d="M1033,213.2c0-5.2,0.9-9.7,2.6-13.7s4.1-7.4,7.2-10.1c3.1-2.7,6.7-4.8,11.1-6.2c4.3-1.4,9.1-2.1,14.2-2.1
				c6.3,0,11.2,0.7,14.8,2.1c3.5,1.4,6.1,2.8,7.7,4.4c0.9,1.1,1.7,2.2,2.2,3.3c0.5,1.2,0.8,2.5,0.8,4.1s-0.2,3.1-0.7,4.4
				c-0.5,1.4-1.1,2.6-1.7,3.6c-0.7,1.1-1.3,2-2,2.7c-0.6,0.7-1.1,1.3-1.4,1.6c-1.8-0.8-3.9-1.6-6.5-2.4c-2.5-0.7-5.3-1.1-8.4-1.1
				c-4,0-7.4,1.2-10.2,3.5c-2.8,2.3-4.2,6.2-4.2,11.5v45H1033V213.2z"/>
		</g>
	</g>
	<g>
		<g>
			<path class="st2" d="M286.6,188c0,0,22.4,6.4,26,16.2s-12.1,11.6-12.1,11.6L286.6,188z"/>
			<path class="st1" d="M300.5,218.6c-1,0-2-0.6-2.5-1.5l-13.9-27.8c-0.5-1-0.4-2.2,0.3-3s1.9-1.2,2.9-0.9c2.4,0.7,23.9,7.1,27.8,18
				c1.4,3.8,0.4,6.7-0.6,8.4c-3.5,5.6-12.7,6.8-13.8,6.9C300.7,218.6,300.6,218.6,300.5,218.6z M292.1,192.8l9.9,19.8
				c2.6-0.6,6.4-1.8,7.8-4c0.4-0.6,0.8-1.6,0.1-3.5C308.1,200.1,299,195.5,292.1,192.8z"/>
		</g>
		<g>
			<path class="st2" d="M263.2,208.8c0,0,3.6,23,12.9,27.8s13-10.6,13-10.6L263.2,208.8z"/>
			<path class="st1" d="M279.6,240.3c-1.4,0-3-0.3-4.7-1.2c-10.3-5.3-14-27.3-14.4-29.8c-0.2-1.1,0.3-2.2,1.3-2.8
				c0.9-0.6,2.1-0.6,3.1,0l25.9,17.2c1,0.6,1.4,1.8,1.2,3c-0.2,1-2.6,10-8.6,12.8C282.3,239.9,281.1,240.3,279.6,240.3z
				 M267.3,214.9c1.8,7.2,5.2,16.7,10.1,19.2c1.8,0.9,2.9,0.6,3.5,0.3c2.3-1.1,4.1-4.7,4.9-7.2L267.3,214.9z"/>
		</g>
		<g>
			<path class="st2" d="M236,191.4c0,0,15.8,29.1,22.5,30.9c6.7,1.8,8.4-14.6,8.4-14.6L236,191.4z"/>
			<path class="st1" d="M259.5,225.2c-0.6,0-1.2-0.1-1.8-0.2c-7.3-2-20.4-25.2-24.3-32.2c-0.6-1.1-0.4-2.4,0.5-3.3
				c0.9-0.9,2.2-1.1,3.3-0.5l30.9,16.3c1,0.5,1.6,1.6,1.5,2.7c-0.2,2.1-1.5,12.6-6.5,16.1C262,224.9,260.8,225.2,259.5,225.2z
				 M243.1,198.4c6.4,10.8,13.4,20.5,16.1,21.2c0.3,0.1,0.5,0.1,0.8-0.1c1.8-1.2,3.2-6.3,3.8-10.2L243.1,198.4z"/>
		</g>
		<path class="st1" d="M307.9,234.6c-4.9,12.4-44.7-37.9-124-54.3c-80.3-16.6-78.2-37.9-77-47.2c1.5-11.8,38.3-39.2,102-16.7
			C257.3,133.7,315.1,216.5,307.9,234.6z"/>
		<g>
			<g>
				<path class="st2" d="M305.3,223.2c0,0,56.3,6.2,67.4,23.1s-30.5,10.1-43.2,20.8s-16.1,25.4-24.3,25.9
					c-8.2,0.4-8.2-62.8-8.2-62.8L305.3,223.2z"/>
				<path class="st1" d="M305.2,295.7c-0.9,0-2.1-0.3-3.2-1.4c-7.1-6.7-7.7-50.8-7.7-64.2c0-0.8,0.4-1.6,1-2.1l8.3-7
					c0.6-0.5,1.4-0.7,2.1-0.6c2.4,0.3,57.8,6.5,69.5,24.3c2.3,3.6,2.9,6.8,1.7,9.5c-2.5,5.6-11.7,6.9-22.3,8.4
					c-8.7,1.2-18.5,2.7-23.1,6.5c-5.4,4.6-9.1,10-12.3,14.8c-4.2,6.1-7.8,11.5-13.6,11.8C305.4,295.7,305.3,295.7,305.2,295.7z
					 M299.8,231.5c0.1,25.7,2.3,54.6,5.8,58.6c2.9-0.5,5.5-4.4,8.8-9.3c3.3-4.8,7.3-10.8,13.3-15.9c5.8-4.9,16-6.4,25.9-7.8
					c7.5-1.1,16.7-2.4,18-5.2c0.5-1.1-0.6-3.1-1.3-4.1c-8.3-12.7-48.1-19.8-64.2-21.7L299.8,231.5z"/>
			</g>
			<g>
				<path class="st1" d="M325.9,258c-0.8,0-1.6-0.3-2.1-1l-24.4-28.8c-1-1.2-0.8-2.9,0.3-3.9c1.2-1,2.9-0.8,3.9,0.3l24.4,28.8
					c1,1.2,0.8,2.9-0.3,3.9C327.1,257.8,326.5,258,325.9,258z"/>
				<path class="st1" d="M339,244.6c-0.4,0-0.8-0.1-1.1-0.2L303.2,229c-1.4-0.6-2-2.3-1.4-3.7s2.3-2,3.7-1.4l34.6,15.4
					c1.4,0.6,2,2.3,1.4,3.7C341.1,244,340.1,244.6,339,244.6z"/>
				<path class="st1" d="M310.5,268.8c-1.2,0-2.4-0.8-2.7-2.1l-9.5-36.7c-0.4-1.5,0.5-3,2-3.4s3,0.5,3.4,2l9.5,36.7
					c0.4,1.5-0.5,3-2,3.4C310.9,268.8,310.7,268.8,310.5,268.8z"/>
			</g>
		</g>
		<g>
			<g>
				<path class="st2" d="M196.9,145.5l25.2,20c39.9-13,58.1-7.8,81.1-6.5c13.6,0.7,55.4-43.9,53-58.5s-47.7-14.9-83.5-1.7
					S196.9,145.5,196.9,145.5z"/>
				<path class="st1" d="M221.5,168.6l-29-23.1l2.6-2.2c1.6-1.4,40.7-34,76.6-47.2c29.4-10.8,66.3-12.9,80.7-4.6
					c3.8,2.2,6,5.1,6.6,8.5c1.8,10.7-14.7,30.1-19.7,35.8c-11,12.3-27,26.6-36.1,26c-4.2-0.2-8.3-0.6-12.3-0.9
					c-18.3-1.6-35.7-3.1-67.8,7.3L221.5,168.6z M201.4,145.4l21.3,17c32.3-10.3,50.8-8.7,68.6-7.1c4,0.4,8,0.7,12.1,0.9
					c0.1,0,0.2,0,0.2,0c5.6,0,19-10.3,31.4-24.1c11.7-13.1,19.3-25.9,18.4-31.1c-0.3-1.7-1.6-3.2-3.9-4.6c-11.4-6.7-45.4-6.2-75.9,5
					C243.9,112.3,210.8,137.9,201.4,145.4z"/>
			</g>
			<path class="st1" d="M206,155.4c-0.8,0-1.5-0.3-2.1-0.9c-1-1.1-0.9-2.9,0.2-3.9c0.7-0.6,71-62.4,147.4-36.9
				c1.5,0.5,2.3,2.1,1.8,3.5c-0.5,1.5-2.1,2.2-3.5,1.8c-73.3-24.5-141.2,35.2-141.9,35.8C207.3,155.2,206.6,155.4,206,155.4z"/>
			<path class="st1" d="M214.3,162.1c-0.9,0-1.8-0.5-2.4-1.3c-0.8-1.3-0.4-3,0.9-3.8c2.3-1.4,56.9-35.3,117.5-19.7
				c1.5,0.4,2.4,1.9,2,3.4s-1.9,2.4-3.4,2c-58.2-15-112.6,18.7-113.2,19C215.4,162,214.9,162.1,214.3,162.1z"/>
		</g>
		<path class="st2" d="M160.5,166c-0.9,0-1.7-0.4-2.3-1.2c-0.9-1.3-0.6-3,0.7-3.9c10.8-7.7,13.4-22.7,5.7-33.6
			c-0.9-1.3-0.6-3,0.7-3.9s3-0.6,3.9,0.7c9.5,13.4,6.3,31.9-7.1,41.4C161.6,165.8,161.1,166,160.5,166z"/>
		<path class="st2" d="M137.5,147.1c-0.8,0-1.5-0.1-2.3-0.2c-7.2-1.2-12.1-8.1-10.9-15.4c0.6-3.5,2.5-6.6,5.4-8.6
			c2.9-2.1,6.4-2.9,9.9-2.3s6.6,2.5,8.6,5.4c2.1,2.9,2.9,6.4,2.3,9.9l0,0c-0.6,3.5-2.5,6.6-5.4,8.6
			C142.9,146.2,140.3,147.1,137.5,147.1z M137.5,126c-1.6,0-3.1,0.5-4.4,1.4c-1.7,1.2-2.8,3-3.2,5c-0.7,4.2,2.1,8.2,6.3,8.9
			c2,0.4,4.1-0.1,5.8-1.3s2.8-3,3.2-5l0,0c0.3-2-0.1-4.1-1.3-5.8s-3-2.8-5-3.1C138.4,126.1,137.9,126,137.5,126z"/>
	</g>
</g>
</svg>
